<svg width="45" height="31" viewBox="0 0 45 31" fill="none" xmlns="http://www.w3.org/2000/svg">
<path d="M38.0996 25.1055H38L37.9951 25.2578C37.7838 28.4429 30.9716 31 22.5996 31C14.2278 30.9999 7.41644 28.4428 7.20508 25.2578L7.2002 25.1055H7.09961V15.9014L22.5 23L38.0996 15.8096V25.1055Z" fill="#EEF0FC"/>
<path d="M0 9.62963L22.5 0L45 9.62963L22.5 20L0 9.62963Z" fill="#EEF0FC"/>
<path d="M43.5 10V17.5" stroke="#EEF0FC"/>
<circle cx="43.5" cy="18.5" r="1.5" fill="#EEF0FC"/>
<path d="M42.9106 19.9919C42.9624 19.7071 43.2105 19.5 43.5 19.5C43.7895 19.5 44.0376 19.7071 44.0894 19.9919L44.7317 23.5242C44.8714 24.2926 44.281 25 43.5 25C42.719 25 42.1286 24.2926 42.2683 23.5242L42.9106 19.9919Z" fill="#EEF0FC"/>
</svg>
