<svg width="28" height="21" viewBox="0 0 28 21" fill="none" xmlns="http://www.w3.org/2000/svg">
<path d="M27.6816 1.66211C27.8832 2.06532 28 2.51856 28 3V18C28 19.6569 26.6569 21 25 21H3C1.34315 21 7.24799e-08 19.6569 0 18V3C0 2.51872 0.115951 2.06522 0.317383 1.66211L12.7168 12.042L12.8594 12.1514C13.5931 12.6614 14.5877 12.625 15.2842 12.042L27.6816 1.66211ZM25 0C25.4399 3.42137e-08 25.857 0.0964753 26.2334 0.266602L14 10.5088L1.76562 0.266602C2.14227 0.0962447 2.55974 4.27978e-09 3 0H25Z" fill="white"/>
</svg>
