<svg width="39" height="36" viewBox="0 0 39 36" fill="none" xmlns="http://www.w3.org/2000/svg">
<path d="M12.75 7.36225V3.37549C12.75 2.54706 13.4216 1.87549 14.25 1.87549H25.246C26.0744 1.87549 26.746 2.54706 26.746 3.37549V7.36225" stroke="#EEF0FC" stroke-width="2.5"/>
<path d="M39 33.0171C39 34.1217 38.1046 35.0171 37 35.0171H2C0.895431 35.0171 0 34.1217 0 33.0171V21.1089C0.758299 22.1198 1.89431 22.8401 3.22168 23.0493L15.916 25.0493V27.1685C15.9163 27.7205 16.3639 28.1685 16.916 28.1685H22.3652C22.9174 28.1684 23.365 27.7205 23.3652 27.1685V25.0044L35.7783 23.0493C37.1057 22.8401 38.2417 22.1198 39 21.1089V33.0171ZM2.47461 11.8521C1.4872 12.1681 0.633703 12.7825 0.0195312 13.5894C0.14827 12.6091 0.98456 11.8521 2 11.8521H2.47461ZM37 11.8521C38.0154 11.8521 38.8507 12.6091 38.9795 13.5894C38.3653 12.7827 37.5126 12.168 36.5254 11.8521H37Z" fill="#EEF0FC"/>
<path d="M37 9.6333C38.1046 9.6333 39 10.5287 39 11.6333V17.9175C39 18.9046 38.2794 19.7439 37.3037 19.894L23.3652 22.0376V20.6782C23.3652 20.126 22.9175 19.6783 22.3652 19.6782H16.916C16.3637 19.6782 15.916 20.1259 15.916 20.6782V22.0815L1.69629 19.894C0.720626 19.7439 0 18.9046 0 17.9175V11.6333C1.45602e-05 10.5287 0.89544 9.6333 2 9.6333H37Z" fill="#EEF0FC"/>
<rect x="17.0869" y="21.9526" width="5" height="4" rx="1" fill="#EEF0FC"/>
</svg>
